<svg width="1650" height="604" viewBox="0 0 1650 604" fill="none" xmlns="http://www.w3.org/2000/svg">
<path d="M128.69 133.52C126.3 139.52 124.69 142.65 119.95 142.65C115.21 142.65 113.19 139.08 110.81 133.52L59.16 0.0100098H0V278.15H35V37.36H50.49V70.73H65.99V120.39H81.49V158.14H96.9V188.34H142.2V158.14H158.49V120.4H174V70.73H189.49V37.36H205V278.15H240V0.0100098H180.4L128.69 133.52Z" fill="#6F195E"/>
<path d="M482.32 247.15H497.82V231.66H513.32V216.16H528.81V185.16H544.31V92.99H528.81V61.99H513.32V46.5H497.82V31H482.32V15.51H451.32V0.0100098H356V15.51H325V31H309.5V46.5H294V61.99H278.49V92.99H263V185.17H278.5V216.17H294V231.67H309.5V247.16H325V262.66H356V278.16H451.36V262.66H482.36L482.32 247.15ZM403.65 243.15C346.43 243.15 301.93 197.46 301.93 139.05C301.93 80.64 346.43 34.95 403.65 34.95C460.87 34.95 505.37 80.64 505.37 139.05C505.37 197.46 460.87 243.18 403.65 243.18V243.15Z" fill="#6F195E"/>
<path d="M730.26 231.66H745.76V216.16H761.26V185.16H776.75V92.99H761.26V61.99H745.76V46.5H730.26V31H714.77V15.51H683.77V0.0100098H568.15V278.15H683.78V262.65H714.78V247.15H730.27L730.26 231.66ZM633.26 245.96C613.4 245.96 603.46 237.22 603.46 218.55V59.61C603.46 40.94 613.4 32.19 633.26 32.19C690.08 32.19 736.97 80.67 736.97 139.08C736.97 197.49 690.13 245.96 633.31 245.96H633.26Z" fill="#6F195E"/>
<path d="M956.35 180.8C956.35 216.16 930.13 242.8 895.56 242.8C860.56 242.8 834.37 216.18 834.37 180.8V0.0100098H797.81V216.16H813.31V247.16H828.8V262.66H859.8V278.16H929.73V262.66H960.73V247.16H976.23V216.16H991.72V0.0100098H956.36L956.35 180.8Z" fill="#6F195E"/>
<path d="M1413.68 185.57H1398.19V154.57H1382.69V108.48H1367.2V77.48H1351.7V31H1336.2V0H1284.55V31H1269.05V77.49H1253.56V108.49H1238.06V154.58H1222.56V185.58H1207.07V231.67H1191.57V244.38H1090.25C1071.58 244.38 1062.84 235.24 1062.84 216.57V0.00999451H1027.47V278.15H1220.58L1239.65 224.51C1246.41 205.83 1257.53 196.73 1275 196.73H1343.74C1361.23 196.73 1372.74 205.87 1379.5 224.55L1398.58 278.19H1429.17V231.66H1413.67L1413.68 185.57ZM1309.18 170.47C1280.58 170.47 1269.05 164.11 1269.05 148.61C1269.05 142.61 1270.25 138.68 1273.42 131.13L1298.85 63.58C1301.24 57.58 1304.42 54.84 1309.58 54.84C1314.35 54.84 1317.93 57.62 1319.91 63.58L1345.34 131.13C1348.12 138.68 1349.34 143.05 1349.34 149.01C1349.32 164.51 1338.19 170.47 1309.18 170.47Z" fill="#6F195E"/>
<path d="M1633.81 247.15V231.66H1618.31V216.16H1602.82V185.57H1587.32V170.07H1571.82V154.57H1602.42V139.08H1617.92V108.08H1633.41V61.98H1617.92V30.98H1602.42V15.51H1571.82V0.0100098H1442.29V278.15H1477.65V191.92C1477.65 171.26 1487.59 160.92 1507.85 160.92C1524.14 160.92 1534.85 167.28 1547.98 185.92L1613.98 278.11H1649.34V247.11L1633.81 247.15ZM1534.47 131.15H1504.28C1485.6 131.15 1477.28 122.81 1477.28 104.53V58.42C1477.28 39.74 1485.62 32.19 1504.28 32.19H1534.47C1569.04 32.19 1591.69 51.66 1591.69 82.66C1591.69 112.46 1569.44 131.13 1534.47 131.13V131.15Z" fill="#6F195E"/>
<path d="M420.34 356.03H404.84V340.54H372.26V325.04H303.92V340.54H274.12V356.03H258.62V371.53H243.13V402.12C243.13 445.04 271.34 471.66 323.39 478.01L348.82 481.19C384.58 485.56 399.68 499.47 399.68 522.91C399.68 548.74 377.43 566.62 346.04 566.62C319.42 566.62 300.74 557.48 288.42 538.01C279.68 524.5 272.53 516.16 257.42 516.16H241.94V556.73H257.43V572.22H272.93V587.73H304.71V603.23H375.44V587.73H404.84V572.23H420.34V556.73H435.84V520.53C435.84 478.41 405.64 451 352 444.64L326.17 441.86C295.58 437.86 279.29 423.98 279.29 401.33C279.29 377.09 300.29 361.2 331.73 361.2C357.16 361.2 372.26 367.95 383.79 383.85C393.72 396.96 396.9 414.04 418.35 414.04H435.84V387.82H420.34V356.03Z" fill="#6F195E"/>
<path d="M641.26 356.03H625.76V340.54H594.76V325.04H462.06V603.18H497.42V500.66H594.77V485.17H625.77V469.67H641.27V438.73H656.77V387.02H641.27L641.26 356.03ZM554.26 468.48H524C504.93 468.48 496.19 460.13 496.19 442.65V383.05C496.19 365.17 504.93 357.22 524 357.22H554.2C591.55 357.22 616.98 379.47 616.98 412.85C616.98 446.23 591.59 468.48 554.24 468.48H554.26Z" fill="#6F195E"/>
<path d="M704.83 325.04H669.47V603.18H704.83V325.04Z" fill="#6F195E"/>
<path d="M976.21 371.53H960.72V356.03H945.22V340.54H914.22V325.04H820.85V340.54H789.85V356.03H774.35V371.53H758.87V387.02H743.37V418.02H727.88V510.2H743.37V541.2H758.87V556.73H774.36V572.22H789.86V587.73H820.86V603.23H914.24V587.73H945.24V572.23H960.74V556.73H976.23V541.23H991.73V514.97H969.48C955.17 514.97 946.48 524.11 934.48 537.97C916.2 558.63 895.15 568.17 865.74 568.17C809.32 568.17 766.8 523.27 766.8 464.07C766.8 404.87 809.32 359.97 865.74 359.97C894.74 359.97 916.2 369.5 934.48 390.16C946.4 404.07 955.14 413.16 969.48 413.16H991.73V387.02H976.23L976.21 371.53Z" fill="#6F195E"/>
<path d="M1013.17 603.18H1184.82V570.99H1074C1056.52 570.99 1048.17 562.25 1048.17 543.58V504.24C1048.17 484.77 1056.52 475.63 1075.59 475.63H1152.28C1163.8 475.63 1170.55 469.63 1170.55 459.34C1170.55 449.41 1163.8 443.05 1152.28 443.05H1075.59C1056.52 443.05 1048.17 433.91 1048.17 414.05V385.05C1048.17 366.37 1056.92 357.23 1074.4 357.23H1184.86V325.04H1013.17V603.18Z" fill="#6F195E"/>
<path d="M1368.39 356.03H1352.89V340.54H1320.31V325.04H1252V340.54H1222.2V356.03H1206.7V371.53H1191.21V402.12C1191.21 445.04 1219.42 471.66 1271.47 478.01L1296.9 481.19C1332.66 485.56 1347.76 499.47 1347.76 522.91C1347.76 548.74 1325.51 566.62 1294.12 566.62C1267.5 566.62 1248.82 557.48 1236.5 538.01C1227.76 524.5 1220.61 516.16 1205.5 516.16H1190V556.73H1205.5V572.22H1221V587.73H1252.78V603.23H1323.51V587.73H1352.91V572.23H1368.41V556.73H1383.91V520.53C1383.91 478.41 1353.71 451 1300.07 444.64L1274.24 441.86C1243.65 437.86 1227.36 423.98 1227.36 401.33C1227.36 377.09 1248.41 361.2 1279.8 361.2C1305.23 361.2 1320.33 367.95 1331.86 383.85C1341.79 396.96 1344.97 414.04 1366.42 414.04H1383.91V387.82H1368.41L1368.39 356.03Z" fill="#6F195E"/>
</svg>
